<svg xmlns="http://www.w3.org/2000/svg" width="914.5" height="137.75" viewBox="0 0 914.5 137.75" font-family="sans-serif" font-size="14"><defs><marker id="arrow-filled" viewBox="0 0 10 10" refX="10" refY="5" markerWidth="10" markerHeight="10" orient="auto-start-reverse"><path d="M0 0 L10 5 L0 10 z" fill="#333"/></marker><marker id="arrow-circle" viewBox="0 0 12 12" refX="10" refY="6" markerWidth="12" markerHeight="12" orient="auto-start-reverse"><circle cx="6" cy="6" r="5" fill="#fff" stroke="#333" stroke-width="1.5"/></marker><marker id="arrow-cross" viewBox="0 0 10 10" refX="5" refY="5" markerWidth="10" markerHeight="10" orient="auto"><path d="M1 1 L9 9 M9 1 L1 9" stroke="#333" stroke-width="1.5"/></marker></defs><path d="M97.5 77L177.5 77" fill="none" stroke="#333" stroke-width="1.5" marker-end="url(#arrow-filled)"/><path d="M258.5 77L338.5 77" fill="none" stroke="#333" stroke-width="1.5" marker-end="url(#arrow-filled)"/><path d="M419.5 77L499.5 77" fill="none" stroke="#333" stroke-width="1.5" marker-end="url(#arrow-filled)"/><path d="M586.016 69.938L678.5 52.295" fill="none" stroke="#333" stroke-width="1.5" marker-end="url(#arrow-filled)"/><rect x="614.258" y="52.117" width="36" height="18" fill="#fff" stroke="none"/><text x="632.258" y="65.117" text-anchor="middle" fill="#333" font-size="12">true</text><path d="M586.016 84.062L711.5 108L825.22 83.854" fill="none" stroke="#333" stroke-width="1.5" marker-end="url(#arrow-filled)"/><rect x="684.356" y="97.923" width="43" height="18" fill="#fff" stroke="none"/><text x="705.856" y="110.923" text-anchor="middle" fill="#333" font-size="12">false</text><path d="M744.5 53.007L825.22 70.146" fill="none" stroke="#333" stroke-width="1.5" marker-end="url(#arrow-filled)"/><circle cx="60.75" cy="77" r="36.75" fill="#ECECFF" stroke="#9370DB" stroke-width="1.5"/><text x="60.75" y="82" text-anchor="middle" fill="#333">Start</text><rect x="177.5" y="55" width="81" height="44" fill="#ECECFF" stroke="#9370DB" stroke-width="1.5" rx="4"/><text x="218" y="82" text-anchor="middle" fill="#333">Step 1</text><rect x="338.5" y="55" width="81" height="44" fill="#ECECFF" stroke="#9370DB" stroke-width="1.5" rx="4"/><text x="379" y="82" text-anchor="middle" fill="#333">Step 2</text><path d="M549 49L598.5 77L549 105L499.5 77Z" fill="#ECECFF" stroke="#9370DB" stroke-width="1.5"/><text x="549" y="82" text-anchor="middle" fill="#333">Decide</text><rect x="678.5" y="32" width="66" height="28" fill="#ECECFF" stroke="#9370DB" stroke-width="1.5"/><path d="M678.5 32 A33 8 0 0 0 744.5 32 A33 8 0 0 0 678.5 32" fill="#ECECFF" stroke="#9370DB" stroke-width="1.5"/><path d="M678.5 60 A33 8 0 0 0 744.5 60" fill="none" stroke="#9370DB" stroke-width="1.5"/><text x="711.5" y="51" text-anchor="middle" fill="#333">Save</text><circle cx="857.5" cy="77" r="33" fill="#ECECFF" stroke="#9370DB" stroke-width="1.5"/><text x="857.5" y="82" text-anchor="middle" fill="#333">Stop</text></svg>