<svg xmlns="http://www.w3.org/2000/svg" width="906.5" height="129.75" viewBox="0 0 906.5 129.75" font-family="sans-serif" font-size="14"><defs><marker id="arrow-filled" viewBox="0 0 10 10" refX="10" refY="5" markerWidth="10" markerHeight="10" orient="auto-start-reverse"><path d="M0 0 L10 5 L0 10 z" fill="#333"/></marker></defs><path d="M93.5 73L173.5 73" fill="none" stroke="#333" stroke-width="1.5" marker-end="url(#arrow-filled)"/><path d="M254.5 73L334.5 73" fill="none" stroke="#333" stroke-width="1.5" marker-end="url(#arrow-filled)"/><path d="M415.5 73L495.5 73" fill="none" stroke="#333" stroke-width="1.5" marker-end="url(#arrow-filled)"/><path d="M582.016 65.938L674.5 48.295" fill="none" stroke="#333" stroke-width="1.5" marker-end="url(#arrow-filled)"/><rect x="610.258" y="48.117" width="36" height="18" fill="#fff" stroke="none"/><text x="628.258" y="61.117" text-anchor="middle" fill="#333" font-size="12">true</text><path d="M582.016 80.062L707.5 104L821.22 79.854" fill="none" stroke="#333" stroke-width="1.5" marker-end="url(#arrow-filled)"/><rect x="680.356" y="93.923" width="43" height="18" fill="#fff" stroke="none"/><text x="701.856" y="106.923" text-anchor="middle" fill="#333" font-size="12">false</text><path d="M740.5 49.007L821.22 66.146" fill="none" stroke="#333" stroke-width="1.5" marker-end="url(#arrow-filled)"/><circle cx="56.75" cy="73" r="36.75" fill="#ECECFF" stroke="#9370DB" stroke-width="1.5"/><text x="56.75" y="78" text-anchor="middle" fill="#333">Start</text><rect x="173.5" y="51" width="81" height="44" fill="#ECECFF" stroke="#9370DB" stroke-width="1.5" rx="4"/><text x="214" y="78" text-anchor="middle" fill="#333">Step 1</text><rect x="334.5" y="51" width="81" height="44" fill="#ECECFF" stroke="#9370DB" stroke-width="1.5" rx="4"/><text x="375" y="78" text-anchor="middle" fill="#333">Step 2</text><path d="M545 45L594.5 73L545 101L495.5 73Z" fill="#ECECFF" stroke="#9370DB" stroke-width="1.5"/><text x="545" y="78" text-anchor="middle" fill="#333">Decide</text><rect x="674.5" y="28" width="66" height="28" fill="#ECECFF" stroke="#9370DB" stroke-width="1.5"/><path d="M674.5 28 A33 8 0 0 0 740.5 28 A33 8 0 0 0 674.5 28" fill="#ECECFF" stroke="#9370DB" stroke-width="1.5"/><path d="M674.5 56 A33 8 0 0 0 740.5 56" fill="none" stroke="#9370DB" stroke-width="1.5"/><text x="707.5" y="47" text-anchor="middle" fill="#333">Save</text><circle cx="853.5" cy="73" r="33" fill="#ECECFF" stroke="#9370DB" stroke-width="1.5"/><text x="853.5" y="78" text-anchor="middle" fill="#333">Stop</text></svg>