<svg xmlns="http://www.w3.org/2000/svg" width="554" height="378" viewBox="0 0 554 378" font-family="sans-serif" font-size="14"><text x="277" y="42" text-anchor="middle" fill="#333" font-size="18" font-weight="bold">Browser usage</text><path d="M174 204L174 54A150 150 0 1 1 51.007 289.865Z" fill="#5470C6" stroke="#fff" stroke-width="1"/><path d="M174 204L51.007 289.865A150 150 0 0 1 25.702 181.466Z" fill="#91CC75" stroke="#fff" stroke-width="1"/><path d="M174 204L25.702 181.466A150 150 0 0 1 131.247 60.222Z" fill="#FAC858" stroke="#fff" stroke-width="1"/><path d="M174 204L131.247 60.222A150 150 0 0 1 174 54Z" fill="#EE6666" stroke="#fff" stroke-width="1"/><rect x="332" y="160" width="14" height="14" fill="#5470C6" stroke="#fff" stroke-width="1"/><text x="352" y="172" fill="#333" font-size="13">Chrome (65.3 | 65.3%)</text><rect x="332" y="182" width="14" height="14" fill="#91CC75" stroke="#fff" stroke-width="1"/><text x="352" y="194" fill="#333" font-size="13">Firefox (12.1 | 12.1%)</text><rect x="332" y="204" width="14" height="14" fill="#FAC858" stroke="#fff" stroke-width="1"/><text x="352" y="216" fill="#333" font-size="13">Safari (18 | 18%)</text><rect x="332" y="226" width="14" height="14" fill="#EE6666" stroke="#fff" stroke-width="1"/><text x="352" y="238" fill="#333" font-size="13">Other (4.6 | 4.6%)</text></svg>