<svg xmlns="http://www.w3.org/2000/svg" width="478" height="652" viewBox="0 0 478 652" font-family="sans-serif" font-size="14"><defs><marker id="arrow-filled" viewBox="0 0 8 8" refX="8" refY="4" markerWidth="8" markerHeight="8" orient="auto-start-reverse"><path d="M0 0 L8 4 L0 8 z" fill="#333"/></marker><marker id="arrow-open" viewBox="0 0 8 8" refX="8" refY="4" markerWidth="8" markerHeight="8" orient="auto-start-reverse"><path d="M0 0 L8 4 L0 8" fill="none" stroke="#333" stroke-width="1.5"/></marker><marker id="arrow-cross" viewBox="0 0 8 8" refX="4" refY="4" markerWidth="8" markerHeight="8" orient="auto"><path d="M0 0 L8 8 M8 0 L0 8" stroke="#333" stroke-width="1.5"/></marker></defs><text x="239" y="42" text-anchor="middle" fill="#333" font-size="18" font-weight="bold">API call with blocks</text><line x1="79" y1="94" x2="79" y2="588" stroke="#999" stroke-width="1" stroke-dasharray="4 4"/><line x1="239" y1="94" x2="239" y2="588" stroke="#999" stroke-width="1" stroke-dasharray="4 4"/><line x1="399" y1="94" x2="399" y2="588" stroke="#999" stroke-width="1" stroke-dasharray="4 4"/><rect x="234" y="174" width="10" height="100" fill="#ECECFF" stroke="#9370DB" stroke-width="1"/><line x1="63" y1="360" x2="415" y2="360" stroke="#888" stroke-width="1" stroke-dasharray="4 3"/><text x="83" y="356" fill="#333" font-size="11" font-style="italic">[miss]</text><rect x="63" y="298" width="352" height="174" fill="none" stroke="#666" stroke-width="1"/><rect x="63" y="297.5" width="60" height="18" fill="#EEE" stroke="#666" stroke-width="1"/><text x="69" y="311" fill="#333" font-size="11" font-weight="bold">alt</text><text x="131" y="311" fill="#333" font-size="11" font-style="italic">[cached]</text><rect x="63" y="496" width="352" height="62" fill="none" stroke="#666" stroke-width="1"/><rect x="63" y="495.5" width="60" height="18" fill="#EEE" stroke="#666" stroke-width="1"/><text x="69" y="509" fill="#333" font-size="11" font-weight="bold">loop</text><text x="131" y="509" fill="#333" font-size="11" font-style="italic">[every 30s]</text><rect x="24" y="54" width="110" height="40" fill="#ECECFF" stroke="#9370DB" stroke-width="1.5" rx="4"/><text x="79" y="79" text-anchor="middle" fill="#333">User</text><rect x="24" y="588" width="110" height="40" fill="#ECECFF" stroke="#9370DB" stroke-width="1.5" rx="4"/><text x="79" y="613" text-anchor="middle" fill="#333">User</text><rect x="184" y="54" width="110" height="40" fill="#ECECFF" stroke="#9370DB" stroke-width="1.5" rx="4"/><text x="239" y="79" text-anchor="middle" fill="#333">API</text><rect x="184" y="588" width="110" height="40" fill="#ECECFF" stroke="#9370DB" stroke-width="1.5" rx="4"/><text x="239" y="613" text-anchor="middle" fill="#333">API</text><rect x="344" y="54" width="110" height="40" fill="#ECECFF" stroke="#9370DB" stroke-width="1.5" rx="4"/><text x="399" y="79" text-anchor="middle" fill="#333">DB</text><rect x="344" y="588" width="110" height="40" fill="#ECECFF" stroke="#9370DB" stroke-width="1.5" rx="4"/><text x="399" y="613" text-anchor="middle" fill="#333">DB</text><line x1="79" y1="149" x2="239" y2="149" stroke="#333" stroke-width="1.5" marker-end="url(#arrow-filled)"/><text x="159" y="143" text-anchor="middle" fill="#333" font-size="12">1. GET /users</text><line x1="239" y1="199" x2="399" y2="199" stroke="#333" stroke-width="1.5" marker-end="url(#arrow-filled)"/><text x="319" y="193" text-anchor="middle" fill="#333" font-size="12">2. SELECT</text><line x1="399" y1="249" x2="239" y2="249" stroke="#333" stroke-width="1.5" stroke-dasharray="6 4" marker-end="url(#arrow-filled)"/><text x="319" y="243" text-anchor="middle" fill="#333" font-size="12">3. rows</text><line x1="239" y1="323" x2="79" y2="323" stroke="#333" stroke-width="1.5" stroke-dasharray="6 4" marker-end="url(#arrow-filled)"/><text x="159" y="317" text-anchor="middle" fill="#333" font-size="12">4. 200 OK (cache)</text><rect x="219" y="370" width="200" height="40" fill="#FFF5AD" stroke="#aaaa33" stroke-width="1"/><text x="319" y="394" text-anchor="middle" fill="#333" font-size="12">warm cache</text><line x1="239" y1="435" x2="79" y2="435" stroke="#333" stroke-width="1.5" stroke-dasharray="6 4" marker-end="url(#arrow-filled)"/><text x="159" y="429" text-anchor="middle" fill="#333" font-size="12">5. 200 OK</text><line x1="239" y1="521" x2="399" y2="521" stroke="#333" stroke-width="1.5" marker-end="url(#arrow-filled)"/><text x="319" y="515" text-anchor="middle" fill="#333" font-size="12">6. heartbeat</text></svg>